<svg width="40" height="40" fill="none" xmlns="http://www.w3.org/2000/svg"><path fill-rule="evenodd" clip-rule="evenodd" d="M20 .8C9.4.8.8 9.4.8 20 .8 30.598 9.4 39.2 20 39.2c10.598 0 19.2-8.602 19.2-19.2C39.2 9.4 30.598.8 20 .8zm-7.59 10.684a.826.826 0 0 1 1.167 0L20 17.905l6.422-6.422a.826.826 0 0 1 1.168 0l1.168 1.168a.826.826 0 0 1 0 1.167l-6.422 6.423 6.422 6.422a.826.826 0 0 1 0 1.168L27.59 29a.826.826 0 0 1-1.168 0L20 22.577 13.577 29a.826.826 0 0 1-1.167 0l-1.168-1.168a.826.826 0 0 1 0-1.168l6.422-6.422-6.422-6.423a.826.826 0 0 1 0-1.168l1.167-1.168z" fill="#E84E58"/></svg>